<?xml version="1.0" standalone="no"?>
<!DOCTYPE svg PUBLIC "-//W3C//DTD SVG 20010904//EN"
 "http://www.w3.org/TR/2001/REC-SVG-20010904/DTD/svg10.dtd">
<svg version="1.0" xmlns="http://www.w3.org/2000/svg"
 width="286.000000pt" height="93.000000pt" viewBox="0 0 286.000000 93.000000"
 preserveAspectRatio="xMidYMid meet">

<g transform="translate(0.000000,93.000000) scale(0.100000,-0.100000)"
fill="#000000" stroke="none">
<path d="M680 737 c-30 -15 -38 -47 -16 -59 9 -5 14 -13 11 -19 -12 -19 6 -51
26 -46 33 9 30 -10 -6 -34 -21 -14 -35 -32 -35 -45 0 -11 -6 -29 -14 -39 -13
-18 -14 -18 -41 -1 -15 10 -30 27 -32 37 -3 10 -9 19 -14 19 -13 0 -11 34 2
47 18 18 -25 37 -51 23 -21 -11 -27 -30 -10 -30 5 0 9 -3 9 -7 -5 -29 3 -43
25 -43 17 0 27 -8 36 -29 15 -38 55 -75 73 -68 10 4 8 -11 -10 -53 -13 -32
-26 -85 -29 -118 l-7 -59 33 -12 c33 -11 130 -16 130 -6 0 4 -7 20 -15 38 -14
28 -14 29 -1 13 8 -10 18 -24 21 -30 3 -8 7 -7 11 1 4 9 11 10 24 3 13 -7 21
-7 25 0 3 5 -6 15 -20 22 -43 19 -94 145 -66 162 18 11 13 56 -6 56 -14 0 -14
2 2 20 19 21 45 27 45 11 0 -5 32 -41 71 -81 57 -57 74 -69 85 -59 22 18 17
37 -8 32 -27 -5 -81 54 -121 133 -14 28 -33 56 -41 63 -20 17 -20 41 -1 67 8
10 15 31 15 47 0 39 17 33 27 -10 7 -31 13 -38 33 -38 28 0 29 15 5 73 -15 33
-49 44 -72 21 -8 -8 -17 -8 -31 0 -26 14 -31 14 -62 -2z"/>
<path d="M1440 543 c-19 -3 -45 -14 -58 -26 -24 -22 -26 -57 -4 -65 11 -3 11
-1 1 16 -11 18 -10 24 5 41 18 20 57 29 55 14 0 -5 -17 -32 -37 -62 -42 -61
-66 -77 -60 -40 2 16 -2 24 -12 24 -8 0 -16 -10 -18 -22 -5 -34 39 -52 72 -30
15 10 27 13 31 7 9 -14 48 -13 63 2 7 7 12 26 12 43 0 17 5 36 12 43 9 9 8 17
-2 37 -7 14 -16 24 -19 23 -3 0 -22 -3 -41 -5z m37 -47 c-4 -9 -14 -16 -22
-16 -9 0 -14 3 -12 8 2 4 7 16 11 26 5 14 10 16 18 8 6 -6 8 -18 5 -26z m-19
-50 c4 -20 -18 -50 -29 -39 -11 12 2 64 15 60 6 -2 12 -11 14 -21z"/>
<path d="M1752 527 c-12 -13 -22 -31 -22 -39 0 -25 11 -48 23 -48 7 0 7 4 -1
12 -31 31 12 100 53 84 12 -4 11 -11 -10 -41 -13 -20 -27 -45 -30 -56 -4 -10
-12 -19 -20 -19 -7 0 -16 -6 -18 -12 -4 -10 -8 -9 -16 2 -5 8 -13 11 -17 7 -4
-3 -2 -13 5 -21 17 -21 135 -15 161 9 23 21 26 68 8 111 -11 24 -20 30 -53 32
-32 3 -45 -2 -63 -21z m94 -71 c-4 -21 -15 -40 -27 -47 -32 -17 -35 -2 -6 25
15 14 27 29 27 33 0 4 -7 -1 -15 -11 -17 -23 -19 -9 -5 30 15 39 35 16 26 -30z"/>
<path d="M2426 517 c-26 -27 -33 -51 -17 -61 5 -4 7 2 4 12 -7 28 25 55 56 47
14 -4 27 -8 29 -10 3 -2 -27 -51 -63 -102 -21 -30 -37 -29 -29 2 7 27 -4 33
-24 13 -17 -17 -15 -26 12 -43 22 -15 27 -15 55 -1 30 16 34 23 46 84 5 22 15
36 30 42 30 11 41 30 18 30 -10 0 -35 3 -55 6 -31 5 -41 2 -62 -19z"/>
<path d="M1557 515 c-8 -18 11 -31 25 -17 11 11 3 32 -12 32 -4 0 -10 -7 -13
-15z"/>
<path d="M2189 477 c-19 -29 -33 -60 -31 -70 4 -20 32 -23 50 -5 9 9 12 9 12
0 0 -7 15 -11 38 -10 39 1 65 14 56 29 -3 5 0 18 6 29 6 11 8 24 5 29 -9 16
-68 -7 -91 -36 -31 -39 -39 -23 -14 27 32 63 10 69 -31 7z m90 -49 c-8 -14
-14 -18 -17 -10 -4 13 17 46 25 38 3 -2 -1 -15 -8 -28z"/>
<path d="M2659 492 c-34 -40 -46 -65 -42 -83 6 -23 23 -24 49 -3 16 13 16 15
2 10 -23 -7 -23 5 2 37 11 14 20 30 20 35 0 19 -16 21 -31 4z"/>
<path d="M1590 472 c0 -11 -9 -27 -21 -38 -20 -18 -20 -18 -14 8 9 34 -9 44
-29 16 -19 -27 -21 -68 -3 -68 7 0 26 14 42 30 34 35 53 40 31 8 -21 -29 -20
-38 3 -38 24 0 33 13 37 56 2 25 0 32 -12 27 -7 -3 -14 0 -14 6 0 6 -4 11 -10
11 -5 0 -10 -8 -10 -18z"/>
<path d="M1956 479 c-39 -11 -66 -38 -66 -65 0 -21 5 -23 38 -22 42 1 63 13
56 33 -3 7 -1 23 5 34 14 25 4 30 -33 20z m-6 -44 c-7 -9 -15 -13 -18 -10 -3
2 1 11 8 20 7 9 15 13 18 10 3 -2 -1 -11 -8 -20z"/>
<path d="M2450 471 c0 -25 6 -27 13 -6 4 8 2 17 -3 20 -6 4 -10 -3 -10 -14z"/>
<path d="M2575 482 c-28 -6 -75 -52 -75 -74 0 -15 7 -17 41 -15 38 2 42 5 55
42 14 43 10 54 -21 47z m-15 -58 c-18 -21 -24 -10 -9 18 8 14 14 18 17 10 2
-7 -2 -19 -8 -28z"/>
<path d="M2014 453 c-19 -27 -22 -63 -3 -63 4 0 16 11 25 25 20 30 31 26 14
-4 -16 -32 9 -27 37 7 l23 27 -6 -27 c-7 -32 14 -39 36 -13 9 11 9 15 1 15 -8
0 -9 5 -1 19 17 32 13 43 -11 30 -16 -8 -23 -8 -28 0 -5 8 -13 7 -26 -3 -17
-12 -21 -12 -30 1 -9 12 -14 9 -31 -14z"/>
<path d="M967 433 c-4 -3 -7 -13 -7 -21 0 -12 3 -12 15 -2 8 7 15 16 15 21 0
11 -14 12 -23 2z"/>
<path d="M186 247 c-14 -14 -26 -34 -25 -44 0 -15 2 -14 9 4 12 30 43 46 60
30 10 -9 14 -9 17 1 7 18 31 15 66 -10 l32 -21 -26 27 c-17 18 -40 29 -67 33
-34 5 -44 1 -66 -20z"/>
<path d="M1117 244 c-21 -14 -36 -28 -33 -31 3 -3 17 4 32 16 39 30 91 28 127
-6 l29 -28 -12 26 c-24 53 -85 63 -143 23z"/>
<path d="M335 250 c3 -5 10 -10 15 -10 4 0 24 -16 43 -35 50 -50 65 -43 21 10
-25 31 -44 45 -61 45 -14 0 -21 -4 -18 -10z"/>
<path d="M1012 215 c-17 -25 -28 -45 -23 -45 5 0 30 20 57 45 44 42 45 45 23
45 -18 0 -34 -12 -57 -45z"/>
<path d="M1180 220 c0 -5 5 -10 10 -10 6 0 10 5 10 10 0 6 -4 10 -10 10 -5 0
-10 -4 -10 -10z"/>
<path d="M386 152 c-2 -4 4 -17 14 -30 10 -12 21 -18 25 -13 3 6 -3 19 -14 30
-11 11 -22 17 -25 13z"/>
<path d="M1017 138 c-10 -11 -15 -23 -11 -29 4 -6 12 -2 21 11 19 28 13 41
-10 18z"/>
</g>
</svg>
